<?xml version="1.0" encoding="UTF-8" standalone="no"?><!DOCTYPE svg PUBLIC "-//W3C//DTD SVG 1.1//EN" "http://www.w3.org/Graphics/SVG/1.1/DTD/svg11.dtd"><svg width="100%" height="100%" viewBox="0 0 984 984" version="1.1" xmlns="http://www.w3.org/2000/svg" xmlns:xlink="http://www.w3.org/1999/xlink" xml:space="preserve" xmlns:serif="http://www.serif.com/" style="fill-rule:evenodd;clip-rule:evenodd;stroke-linejoin:round;stroke-miterlimit:2;"><rect id="White-Version" serif:id="White Version" x="0.108" y="0" width="983.04" height="983.04" style="fill:none;"/><clipPath id="_clip1"><rect x="0.108" y="0" width="983.04" height="983.04"/></clipPath><g clip-path="url(#_clip1)"><g id="Celtrius-Studios" serif:id="Celtrius Studios"><path d="M198.461,389.959c78.813,-141.743 257.029,-192.434 398.056,-113.221c141.027,79.213 191.462,258.333 112.649,400.076c-26.404,47.489 -65.401,86.682 -112.649,113.221c62.352,-111.944 46.321,-256.211 -48.392,-351.405c-94.746,-95.228 -238.252,-111.373 -349.664,-48.671" style="fill:#fff;fill-rule:nonzero;"/><path d="M804.02,384.933l11.308,-11.366l149.651,186.774c-21.532,48.84 -45.285,92.752 -71.326,131.739c-26.042,38.989 -54.119,73.651 -84.265,103.947c-91.215,91.678 -189.159,136.785 -293.854,135.336c-104.389,-1.039 -206.844,-52.111 -307.401,-153.177c-100.167,-100.675 -149.096,-205.577 -146.757,-314.669c2.306,-108.275 48.675,-207.876 139.129,-298.787c65.577,-65.912 143.602,-120.817 234.089,-164.731c44.454,50.747 71.039,80.466 79.685,89.156c7.918,7.958 15.836,15.541 23.736,22.733l13.564,13.632c19.616,19.716 37.332,39.431 53.152,59.112l-9.612,9.662c-137.212,-90.945 -259.352,-82.629 -366.386,24.948c-72.36,72.728 -106.456,154.37 -102.302,244.906c0.081,1.928 0.302,3.852 0.302,5.783c0,166.728 123.662,110.843 209.989,197.608c75.975,76.361 2.56,194.008 170.906,194.008c1.508,0 2.998,0.328 4.499,0.478c87.467,9.118 170.765,-26.105 249.91,-105.649c43.707,-43.931 78.331,-91.741 93.841,-146.6c29.797,-105.39 -35.749,-190.312 -51.858,-224.844m-772.677,128.284c12.393,98.92 64.562,194.568 156.523,286.996c107.795,108.342 215.423,163.043 322.88,164.098c-57.34,23.551 -120.139,24.879 -188.398,4.056c-67.885,-20.449 -129.532,-58.517 -184.957,-114.221c-38.078,-38.274 -66.917,-79.767 -86.5,-124.498c-19.973,-43.592 -30.704,-82.426 -32.214,-116.557c-1.797,-32.139 2.425,-65.419 12.666,-99.875" style="fill:#fff;fill-rule:nonzero;"/><path d="M611.05,692.551c-5.201,-66.743 -37.183,-132.555 -95.956,-197.472c-68.893,-76.094 -139.362,-116.204 -211.403,-120.327c39.2,-13.974 81.364,-12.869 126.492,3.267c44.89,15.873 85.04,43.365 120.463,82.489c24.337,26.882 42.374,55.629 54.102,86.254c12.025,29.873 18.001,56.261 17.94,79.202c0.194,21.614 -3.684,43.802 -11.638,66.587" style="fill:#fff;fill-rule:nonzero;"/></g></g></svg>